# xmcd
#
# Track frame offsets:
#	150
#	20290
#	37547
#	50385
#	67730
#	79375
#	89777
#	139742
#	172820
#	181932
#	208320
#
# Disc length: 2892 seconds
#
# Revision: 1
# Processed by: cddbd v1.5.1PL2 Copyright (c) Steve Scherf et al.
# Submitted via: audiograbber 1.83.01
#
DISCID=890b4a0b
DTITLE=Canned Heat - Canned Heat live - On the Road Again
DYEAR=2000
DGENRE=Blues
TTITLE0=On the road again
TTITLE1=Let's work together
TTITLE2=Going up the country
TTITLE3=Chichken shack boogie
TTITLE4=Got my mojo working
TTITLE5=Spoonful
TTITLE6=Sweet sixteen
TTITLE7=Bull frog blues
TTITLE8=Rolling and tumbling
TTITLE9=Dust my broom
TTITLE10=Pretty thing
EXTD=Compilation - Versailles/puzzle productions 2000
EXTT0=
EXTT1=
EXTT2=
EXTT3=
EXTT4=
EXTT5=
EXTT6=
EXTT7=
EXTT8=
EXTT9=
EXTT10=
PLAYORDER=
